<?xml version="1.0" encoding="UTF-8"?>
<svg width="104px" height="104px" viewBox="0 0 104 104" version="1.1" xmlns="http://www.w3.org/2000/svg" xmlns:xlink="http://www.w3.org/1999/xlink">
    <!-- Generator: Sketch 52.3 (67297) - http://www.bohemiancoding.com/sketch -->
    <title>Group 9</title>
    <desc>Created with Sketch.</desc>
    <defs>
        <path d="M31.6363636,30.5454545 L38.1818182,30.5454545 C38.7843106,30.5454545 39.2727273,30.0570379 39.2727273,29.4545455 L39.2727273,22.9090909 C39.2727273,22.3065985 38.7843106,21.8181818 38.1818182,21.8181818 L31.6363636,21.8181818 C31.0338712,21.8181818 30.5454545,22.3065985 30.5454545,22.9090909 L30.5454545,29.4545455 C30.5454545,30.0570379 31.0338712,30.5454545 31.6363636,30.5454545 Z M32.7272727,24 L37.0909091,24 L37.0909091,28.3636364 L32.7272727,28.3636364 L32.7272727,24 Z M9.81818182,19.6363636 L16.3636364,19.6363636 C16.9661288,19.6363636 17.4545455,19.147947 17.4545455,18.5454545 L17.4545455,12 C17.4545455,11.3975075 16.9661288,10.9090909 16.3636364,10.9090909 L9.81818182,10.9090909 C9.21568936,10.9090909 8.72727273,11.3975075 8.72727273,12 L8.72727273,18.5454545 C8.72727273,19.147947 9.21568936,19.6363636 9.81818182,19.6363636 Z M10.9090909,13.0909091 L15.2727273,13.0909091 L15.2727273,17.4545455 L10.9090909,17.4545455 L10.9090909,13.0909091 Z M46.9090909,4.36363636 L45.8181818,4.36363636 L45.8181818,1.09090909 C45.8181818,0.488416637 45.3297652,3.68920228e-17 44.7272727,0 L3.27272727,0 C2.67023482,-3.68920228e-17 2.18181818,0.488416637 2.18181818,1.09090909 L2.18181818,4.36363636 L1.09090909,4.36363636 C0.488416637,4.36363636 7.37840456e-17,4.852053 0,5.45454545 C-7.37840456e-17,6.05703791 0.488416637,6.54545455 1.09090909,6.54545455 L2.18181818,6.54545455 L2.18181818,46.9090909 C2.18181818,47.5115834 2.67023482,48 3.27272727,48 L44.7272727,48 C45.3297652,48 45.8181818,47.5115834 45.8181818,46.9090909 L45.8181818,6.54545455 L46.9090909,6.54545455 C47.5115834,6.54545455 48,6.05703791 48,5.45454545 C48,4.852053 47.5115834,4.36363636 46.9090909,4.36363636 Z M26.1818182,45.8181818 L21.8181818,45.8181818 L21.8181818,34.9090909 L26.1818182,34.9090909 L26.1818182,45.8181818 Z M43.6363636,45.8181818 L28.3636364,45.8181818 L28.3636364,33.8181818 C28.3636364,33.2156894 27.8752197,32.7272727 27.2727273,32.7272727 L20.7272727,32.7272727 C20.1247803,32.7272727 19.6363636,33.2156894 19.6363636,33.8181818 L19.6363636,45.8181818 L4.36363636,45.8181818 L4.36363636,6.54545455 L43.6363636,6.54545455 L43.6363636,45.8181818 Z M43.6363636,4.36363636 L4.36363636,4.36363636 L4.36363636,2.18181818 L43.6363636,2.18181818 L43.6363636,4.36363636 Z M31.6363636,19.6363636 L38.1818182,19.6363636 C38.7843106,19.6363636 39.2727273,19.147947 39.2727273,18.5454545 L39.2727273,12 C39.2727273,11.3975075 38.7843106,10.9090909 38.1818182,10.9090909 L31.6363636,10.9090909 C31.0338712,10.9090909 30.5454545,11.3975075 30.5454545,12 L30.5454545,18.5454545 C30.5454545,19.147947 31.0338712,19.6363636 31.6363636,19.6363636 Z M32.7272727,13.0909091 L37.0909091,13.0909091 L37.0909091,17.4545455 L32.7272727,17.4545455 L32.7272727,13.0909091 Z M20.7272727,30.5454545 L27.2727273,30.5454545 C27.8752197,30.5454545 28.3636364,30.0570379 28.3636364,29.4545455 L28.3636364,22.9090909 C28.3636364,22.3065985 27.8752197,21.8181818 27.2727273,21.8181818 L20.7272727,21.8181818 C20.1247803,21.8181818 19.6363636,22.3065985 19.6363636,22.9090909 L19.6363636,29.4545455 C19.6363636,30.0570379 20.1247803,30.5454545 20.7272727,30.5454545 Z M21.8181818,24 L26.1818182,24 L26.1818182,28.3636364 L21.8181818,28.3636364 L21.8181818,24 Z M9.81818182,30.5454545 L16.3636364,30.5454545 C16.9661288,30.5454545 17.4545455,30.0570379 17.4545455,29.4545455 L17.4545455,22.9090909 C17.4545455,22.3065985 16.9661288,21.8181818 16.3636364,21.8181818 L9.81818182,21.8181818 C9.21568936,21.8181818 8.72727273,22.3065985 8.72727273,22.9090909 L8.72727273,29.4545455 C8.72727273,30.0570379 9.21568936,30.5454545 9.81818182,30.5454545 Z M10.9090909,24 L15.2727273,24 L15.2727273,28.3636364 L10.9090909,28.3636364 L10.9090909,24 Z M31.6363636,41.4545455 L38.1818182,41.4545455 C38.7843106,41.4545455 39.2727273,40.9661288 39.2727273,40.3636364 L39.2727273,33.8181818 C39.2727273,33.2156894 38.7843106,32.7272727 38.1818182,32.7272727 L31.6363636,32.7272727 C31.0338712,32.7272727 30.5454545,33.2156894 30.5454545,33.8181818 L30.5454545,40.3636364 C30.5454545,40.9661288 31.0338712,41.4545455 31.6363636,41.4545455 Z M32.7272727,34.9090909 L37.0909091,34.9090909 L37.0909091,39.2727273 L32.7272727,39.2727273 L32.7272727,34.9090909 Z M9.81818182,41.4545455 L16.3636364,41.4545455 C16.9661288,41.4545455 17.4545455,40.9661288 17.4545455,40.3636364 L17.4545455,33.8181818 C17.4545455,33.2156894 16.9661288,32.7272727 16.3636364,32.7272727 L9.81818182,32.7272727 C9.21568936,32.7272727 8.72727273,33.2156894 8.72727273,33.8181818 L8.72727273,40.3636364 C8.72727273,40.9661288 9.21568936,41.4545455 9.81818182,41.4545455 Z M10.9090909,34.9090909 L15.2727273,34.9090909 L15.2727273,39.2727273 L10.9090909,39.2727273 L10.9090909,34.9090909 Z M20.7272727,19.6363636 L27.2727273,19.6363636 C27.8752197,19.6363636 28.3636364,19.147947 28.3636364,18.5454545 L28.3636364,12 C28.3636364,11.3975075 27.8752197,10.9090909 27.2727273,10.9090909 L20.7272727,10.9090909 C20.1247803,10.9090909 19.6363636,11.3975075 19.6363636,12 L19.6363636,18.5454545 C19.6363636,19.147947 20.1247803,19.6363636 20.7272727,19.6363636 Z M21.8181818,13.0909091 L26.1818182,13.0909091 L26.1818182,17.4545455 L21.8181818,17.4545455 L21.8181818,13.0909091 Z" id="path-1"></path>
        <path d="M16.6666667,0 C7.46666667,0 0,7.46666667 0,16.6666667 C0,25.8666667 7.46666667,33.3333333 16.6666667,33.3333333 C25.8666667,33.3333333 33.3333333,25.8666667 33.3333333,16.6666667 C33.3333333,7.46666667 25.8666667,0 16.6666667,0 Z M25,18.3333333 L18.3333333,18.3333333 L18.3333333,25 L15,25 L15,18.3333333 L8.33333333,18.3333333 L8.33333333,15 L15,15 L15,8.33333333 L18.3333333,8.33333333 L18.3333333,15 L25,15 L25,18.3333333 Z" id="path-3"></path>
    </defs>
    <g id="Home-&gt;-Logged-Out---Desktop" stroke="none" stroke-width="1" fill="none" fill-rule="evenodd">
        <g id="Home-&gt;-Logged-Out-v2---Desktop" transform="translate(-1128.000000, -1388.000000)">
            <g id="Stacked-Group" transform="translate(0.000000, 860.000000)">
                <g id="Group-4">
                    <g id="Stacked-Group-2" transform="translate(205.000000, 111.000000)">
                        <g transform="translate(0.000000, 160.000000)" id="Stacked-Group-3-Copy-6">
                            <g transform="translate(0.000000, 256.000000)">
                                <g id="Stacked-Group-3-Copy-5" transform="translate(920.000000, 1.000000)">
                                    <g id="Stacked-Group">
                                        <g id="Group-9" transform="translate(3.000000, 0.000000)">
                                            <circle id="Oval-3" stroke="#4E61FF" stroke-width="3" cx="52" cy="52" r="50.5"></circle>
                                            <g id="Stacked-Group" transform="translate(22.339812, 40.516634)"></g>
                                            <g id="Icon/Building" transform="translate(28.000000, 28.000000)">
                                                <mask id="mask-2" fill="white">
                                                    <use xlink:href="#path-1"></use>
                                                </mask>
                                                <use id="Shape" fill="#000000" fill-rule="nonzero" xlink:href="#path-1"></use>
                                                <g id="Color/4e61ff" mask="url(#mask-2)" fill="#4E61FF" fill-rule="evenodd">
                                                    <rect id="Rectangle" x="0" y="0" width="48" height="48"></rect>
                                                </g>
                                            </g>
                                            <g id="Plus" transform="translate(64.000000, 64.000000)">
                                                <rect id="Rectangle-8" fill="#FFFFFF" x="5" y="5" width="30" height="30" rx="15"></rect>
                                                <g id="ICON/ic_add_circle_24px">
                                                    <polygon id="Shape" points="0 0 40 0 40 40 0 40"></polygon>
                                                    <g id="COLOR" stroke-width="1" fill-rule="evenodd" transform="translate(3.333333, 3.333333)">
                                                        <mask id="mask-4" fill="white">
                                                            <use xlink:href="#path-3"></use>
                                                        </mask>
                                                        <use id="Mask" fill="#000000" fill-rule="nonzero" xlink:href="#path-3"></use>
                                                        <g id="BG/6-Blue" mask="url(#mask-4)" fill="#4E61FF">
                                                            <g transform="translate(-23.333333, -23.333333)" id="BG">
                                                                <rect x="0" y="0" width="80" height="80"></rect>
                                                            </g>
                                                        </g>
                                                    </g>
                                                </g>
                                            </g>
                                        </g>
                                    </g>
                                </g>
                            </g>
                        </g>
                    </g>
                </g>
            </g>
        </g>
    </g>
</svg>